<?xml version="1.0" standalone="no"?>
<!DOCTYPE svg PUBLIC "-//W3C//DTD SVG 20010904//EN"
 "http://www.w3.org/TR/2001/REC-SVG-20010904/DTD/svg10.dtd">
<svg version="1.0" xmlns="http://www.w3.org/2000/svg"
 width="300.000000pt" height="300.000000pt" viewBox="0 0 300.000000 300.000000"
 preserveAspectRatio="xMidYMid meet">
<metadata>
Created by potrace 1.10, written by Peter Selinger 2001-2011
</metadata>
<g transform="translate(0.000000,300.000000) scale(0.100000,-0.100000)"
fill="#000000" stroke="none">
<path d="M807 2651 l-37 -69 85 -156 c47 -86 85 -159 85 -162 0 -3 -77 -4
-171 -3 l-172 3 -71 -134 -72 -135 634 -3 c350 -1 637 0 640 3 3 2 -1 11 -7
19 -7 8 -41 67 -76 132 l-63 117 -174 0 -173 -1 -121 227 -122 226 -73 3 -74
3 -38 -70z m185 1 c30 -61 144 -272 180 -334 47 -83 58 -87 243 -88 161 0 152
4 213 -112 56 -108 113 -98 -533 -98 -478 0 -566 2 -571 14 -6 14 57 146 84
179 13 14 35 17 151 18 233 2 232 0 127 202 l-80 154 27 46 c29 49 39 54 103
49 34 -3 45 -9 56 -30z"/>
<path d="M1380 2705 c0 -6 4 -15 9 -20 4 -6 28 -46 51 -90 24 -44 98 -181 165
-305 132 -242 201 -371 323 -602 42 -81 79 -148 82 -148 3 0 18 26 35 58 16
31 48 92 71 134 35 65 40 80 29 95 -6 10 -38 68 -70 128 -31 61 -66 125 -77
143 -14 23 -17 36 -10 45 6 7 62 107 125 224 l116 212 -37 67 -37 68 -72 1
-73 2 -80 -150 c-44 -83 -79 -155 -77 -160 5 -15 37 34 103 156 32 60 66 113
76 118 10 6 39 9 64 7 43 -3 47 -6 75 -54 l29 -52 -57 -108 c-31 -60 -70 -131
-85 -159 -98 -177 -101 -187 -69 -245 10 -19 39 -75 65 -125 26 -49 51 -94 57
-100 20 -20 6 -73 -39 -154 -26 -47 -52 -86 -58 -88 -5 -2 -57 83 -114 189
-57 106 -131 243 -165 303 -61 109 -183 340 -247 465 -18 36 -36 67 -40 70 -3
3 -10 18 -13 33 l-7 27 103 0 c57 0 110 -4 116 -8 7 -4 43 -62 80 -128 91
-160 91 -160 98 -152 4 3 -31 76 -77 162 l-83 155 -142 -2 c-92 -1 -143 -6
-143 -12z"/>
<path d="M2383 2158 c-18 -35 -52 -99 -76 -143 -24 -44 -69 -129 -102 -190
-32 -60 -114 -213 -183 -340 -68 -126 -143 -264 -165 -305 -22 -41 -48 -90
-59 -108 l-20 -33 148 3 149 3 87 160 86 160 244 0 244 0 37 67 37 68 -35 71
-36 70 -169 -3 c-94 -2 -170 0 -170 4 0 4 38 76 85 161 l85 154 -45 78 c-24
43 -57 102 -72 131 -15 30 -30 54 -33 54 -3 0 -20 -28 -37 -62z m100 -111 l50
-88 -25 -47 c-14 -26 -48 -91 -76 -144 -29 -53 -52 -106 -52 -118 0 -32 41
-41 184 -41 148 1 162 -4 191 -69 l19 -42 -25 -45 c-13 -24 -27 -47 -31 -49
-4 -2 -109 -4 -233 -4 l-226 0 -32 -33 c-18 -17 -42 -52 -55 -77 -12 -25 -42
-81 -66 -125 l-44 -80 -106 -3 c-58 -1 -106 1 -106 5 0 9 76 161 115 228 24
42 66 120 160 300 32 61 61 115 66 120 4 6 25 44 47 85 52 100 153 286 169
313 11 18 28 -3 76 -86z"/>
<path d="M911 1925 c-10 -16 -51 -90 -90 -163 l-73 -133 -241 2 -242 1 -38
-65 -38 -66 36 -71 36 -71 169 3 c94 2 170 0 170 -4 0 -4 -36 -73 -80 -154
-44 -80 -82 -150 -83 -154 -2 -10 135 -269 143 -270 3 0 38 62 77 138 40 75
98 184 129 242 31 58 78 148 106 200 28 52 56 104 63 115 7 11 61 110 120 220
59 110 115 214 125 230 l19 30 -145 0 -145 0 -18 -30z m247 -7 c2 -10 -21 -62
-51 -115 -70 -126 -129 -236 -184 -343 -24 -47 -52 -98 -62 -115 -17 -29 -45
-80 -151 -280 -29 -55 -64 -117 -77 -137 -13 -21 -23 -42 -23 -47 0 -5 -7 -14
-15 -21 -20 -17 -36 -3 -71 63 -15 29 -33 63 -41 77 -7 14 -13 33 -13 43 0 16
95 205 127 252 16 24 17 71 1 81 -6 4 -78 8 -159 9 -101 1 -153 6 -163 14 -8
7 -24 32 -36 56 l-21 44 20 39 c38 75 27 72 280 72 166 0 232 3 243 13 18 13
54 74 118 200 59 113 57 112 175 112 86 0 100 -2 103 -17z"/>
<path d="M963 1422 c-12 -26 -44 -87 -71 -137 l-49 -90 89 -164 c57 -106 85
-168 79 -175 -5 -6 -61 -107 -124 -223 l-116 -213 37 -70 37 -70 72 0 71 0 81
149 c45 81 81 153 81 160 0 30 22 -2 100 -149 l85 -160 148 0 148 0 -29 53
c-16 28 -46 84 -67 122 -21 39 -65 120 -98 180 -33 61 -70 128 -82 150 -12 22
-97 182 -190 355 -93 173 -171 318 -174 322 -3 3 -16 -15 -28 -40z m46 -64
c24 -38 85 -148 138 -248 27 -52 61 -115 75 -140 14 -25 49 -90 78 -145 29
-55 64 -120 78 -145 14 -25 43 -79 65 -120 22 -41 57 -108 79 -148 22 -40 37
-79 34 -87 -4 -12 -26 -15 -96 -15 -108 0 -108 -1 -187 152 -75 143 -108 174
-145 131 -18 -21 -85 -139 -116 -205 -28 -56 -36 -64 -83 -71 -46 -7 -72 10
-99 64 -23 44 -23 44 47 169 120 216 163 301 163 323 0 10 -36 87 -80 171
l-79 152 32 65 c36 72 66 119 76 119 3 0 13 -10 20 -22z"/>
<path d="M1341 885 c38 -69 69 -130 69 -135 0 -6 67 -10 178 -10 l177 0 28
-52 c16 -29 71 -132 122 -228 l94 -175 73 2 73 1 37 66 38 65 -80 148 c-87
159 -87 159 -96 151 -6 -7 25 -73 100 -210 l47 -87 -25 -49 c-28 -56 -39 -62
-105 -62 l-48 0 -33 63 c-19 34 -42 78 -53 97 -11 19 -42 78 -70 130 -27 52
-60 110 -74 128 l-24 32 -160 0 -161 0 -26 29 c-24 26 -82 131 -95 173 -5 14
18 16 251 21 262 5 903 -2 911 -9 7 -6 -81 -176 -101 -196 -16 -16 -38 -18
-168 -18 -93 0 -150 -4 -150 -10 0 -6 63 -10 168 -10 l169 0 19 41 c10 23 42
84 70 135 l52 94 -638 0 -638 0 69 -125z"/>
</g>
</svg>
